<svg width="20" height="20" viewBox="0 0 20 20" fill="none" xmlns="http://www.w3.org/2000/svg">
<path d="M11.211 0.521657C11.211 1.21703 10.6977 1.78081 10.0645 1.78081C9.43124 1.78081 8.91797 1.21703 8.91797 0.521657C8.91797 -0.173886 11.211 -0.173886 11.211 0.521657Z" fill="#FC6C44"/>
<path d="M10.0639 1.91772C5.42054 1.91772 1.65625 5.72028 1.65625 10.4108H18.4715C18.4715 5.72028 14.7072 1.91772 10.0639 1.91772Z" fill="#FC6C44"/>
<path d="M19.4222 12.1917H0.577815C0.258728 12.1917 0 11.9125 0 11.5682V11.1713C0 10.827 0.258728 10.5479 0.577815 10.5479H19.4222C19.7413 10.5479 20 10.827 20 11.1713V11.5682C20 11.9125 19.7413 12.1917 19.4222 12.1917Z" fill="#FC6C44"/>
<path d="M4.92435 19.3149L5.0629 18.6731C5.25849 17.7683 5.91904 17.0496 6.74604 16.8421C7.61984 16.6229 8.62604 16.76 9.30692 16.8824C10.075 17.0202 10.8818 16.9731 11.6402 16.746L12.753 16.413C13.4551 16.2026 14.1016 15.8485 14.6741 15.3603L16.5933 13.519C17.0933 13.1197 16.7232 11.8852 15.8089 12.5012L13.9198 13.8557L12.0509 14.4411L10.7246 14.4724L11.6188 13.9595C11.9583 13.7703 12.1036 13.3253 11.9496 12.9464C11.8962 12.8152 11.8095 12.7027 11.6987 12.6212C11.5326 12.499 11.3234 12.4546 11.1248 12.4995L8.50389 13.0914L6.50284 12.5068C6.21693 12.4232 5.93544 12.3206 5.64496 12.3291C4.90024 12.3511 4.16041 12.7341 3.60987 13.3005L3.60372 13.3068L1.14844 16.5364L4.92435 19.3149Z" fill="#FC6C44"/>
<path d="M5.62766 18.0851L1.77554 15.303C1.53275 15.1276 1.20205 15.1948 1.03725 15.4533L0.474461 16.3358C0.309822 16.5939 0.373036 16.9448 0.615671 17.12L4.46779 19.9022C4.71059 20.0775 5.04128 20.0103 5.20608 19.7519L5.76887 18.8693C5.93351 18.6112 5.8703 18.2603 5.62766 18.0851Z" fill="#FC6C44"/>
<path d="M5.62248 18.066L4.11258 16.9863L2.92969 18.8224L4.43895 19.9015C4.67787 20.0725 4.99991 20.0147 5.17336 19.7762L5.78294 18.8298C5.92912 18.5723 5.86124 18.2367 5.62248 18.066Z" fill="#FC6C44"/>
</svg>
