<svg width="20" height="20" viewBox="0 0 20 20" fill="none" xmlns="http://www.w3.org/2000/svg">
<g clip-path="url(#clip0)">
<path d="M19.0084 8.58447L17.9961 14.9429H19.6304C19.8594 14.9429 20.0336 14.7373 19.9959 14.5114L19.0084 8.58447Z" fill="#494949"/>
<path d="M0.370656 14.9431H16.3099C16.4921 14.9431 16.6472 14.8107 16.6758 14.6308L18.1318 5.48551C18.1676 5.26043 17.9937 5.05664 17.7658 5.05664H1.8307C1.64859 5.05664 1.49343 5.18898 1.46472 5.36883L0.00471874 14.5141C-0.0312188 14.7392 0.142687 14.9431 0.370656 14.9431ZM3.36187 7.97621H15.1506C15.5239 7.97621 15.8265 8.27883 15.8265 8.65215C15.8265 9.02547 15.5239 9.32809 15.1506 9.32809H3.36187C2.98855 9.32809 2.68593 9.02547 2.68593 8.65215C2.68593 8.27883 2.98855 7.97621 3.36187 7.97621ZM2.88769 10.7654H14.6594C15.0328 10.7654 15.3354 11.068 15.3354 11.4413C15.3354 11.8146 15.0328 12.1173 14.6594 12.1173H2.88769C2.51437 12.1173 2.21175 11.8146 2.21175 11.4413C2.21175 11.068 2.51437 10.7654 2.88769 10.7654Z" fill="#494949"/>
</g>
<defs>
<clipPath id="clip0">
<rect width="20" height="20" fill="white"/>
</clipPath>
</defs>
</svg>
